<mxfile host="app.diagrams.net" modified="2023-12-06T05:39:16.896Z" agent="Mozilla/5.0 (Macintosh; Intel Mac OS X 10_15_7) AppleWebKit/537.36 (KHTML, like Gecko) Chrome/116.0.0.0 Safari/537.36" version="22.1.5" etag="DZVaYJkMG7PrtYacCB4F" type="github">
  <diagram name="第 1 页" id="o9cRiFu4-l5QiD2o39nq">
    <mxGraphModel>
      <root>
        <mxCell id="0" />
        <mxCell id="1" parent="0" />
      </root>
    </mxGraphModel>
  </diagram>
</mxfile>
